<svg t="1766116263482" class="icon" viewBox="0 0 1024 1024" version="1.1" xmlns="http://www.w3.org/2000/svg" p-id="2554" width="256" height="256"><path d="M843.904 361.088c4.309333 0 8.533333 0.256 12.8 0.725333 32.810667 4.352 64.853333 13.184 95.232 26.325334 8.832 3.968 11.008 7.168 3.456 15.189333a307.370667 307.370667 0 0 0-53.376 78.72c-14.72 30.933333-30.72 61.141333-45.781333 91.904a197.333333 197.333333 0 0 1-45.653334 60.757333c-46.933333 42.453333-101.632 60.373333-164.096 51.712-71.68-9.941333-139.52-34.133333-203.648-66.048a125.141333 125.141333 0 0 1-9.173333-4.821333 4.693333 4.693333 0 0 1-1.493333-6.442667 4.565333 4.565333 0 0 1 1.749333-1.621333l4.48-2.389333c51.84-27.733333 95.232-66.389333 136.96-107.008 17.664-17.109333 34.56-35.029333 52.437333-51.925334a301.824 301.824 0 0 1 140.16-75.093333c11.52-2.816 23.253333-5.077333 34.816-7.552h0.512l24.704-2.261333" fill="#133C9A" p-id="2555"></path><path d="M341.973333 862.464c-7.893333-0.469333-27.264-3.157333-29.653333-3.456a469.888 469.888 0 0 1-144.469333-42.24c-26.453333-12.373333-51.84-26.88-77.312-41.088-16.768-9.344-24.32-23.893333-24.192-43.648 0.512-72.96 0.512-145.92 0-218.88-0.256-46.933333-1.749333-93.824-2.389334-140.8 0-4.181333 0.64-8.32 1.92-12.16 2.901333-8.533333 8.704-8.96 14.464-3.456 6.656 6.4 11.989333 14.208 18.56 20.48 58.88 58.112 121.429333 111.317333 191.445334 155.093333a1055.274667 1055.274667 0 0 0 122.88 67.712c68.053333 30.933333 137.856 58.197333 210.944 75.477334 64.64 15.317333 127.445333 5.632 179.797333-35.328 16-13.696 23.893333-23.68 42.837333-48.896a313.514667 313.514667 0 0 1-32.725333 63.744c-12.16 19.2-39.68 44.8-60.544 64.853333-31.744 30.72-73.301333 55.637333-112.256 76.629333-42.496 22.912-86.656 41.216-133.845333 51.2-24.192 6.101333-59.136 13.013333-71.168 13.653334-2.133333-0.128-9.344 1.493333-13.013334 1.237333-31.104 2.304-50.304 3.2-81.28 0h-0.085333z" fill="#3370FF" p-id="2556"></path><path d="M208.469333 159.573333a41.685333 41.685333 0 0 1 6.528 0c133.589333 0 266.112 2.176 399.573334 2.176 0.256 0 0.512 0 0.64 0.213334 12.416 10.837333 23.893333 22.528 34.389333 35.157333 30.165333 29.952 52.608 81.92 67.968 113.536 7.68 21.888 19.2 42.752 24.661333 67.2v0.384c-13.653333 4.437333-26.88 9.813333-39.68 16.213333-38.656 19.584-56.192 33.92-88.192 65.408-17.493333 17.109333-32.384 32.469333-55.552 54.357334-8.405333 8.149333-17.109333 16-26.069333 23.552-6.144-10.88-110.037333-214.016-318.72-373.888" fill="#00D6B9" p-id="2557"></path></svg>
